<?xml version="1.0" encoding="utf-8"?>
<!-- Generator: Adobe Illustrator 13.0.0, SVG Export Plug-In  -->
<!DOCTYPE svg PUBLIC "-//W3C//DTD SVG 1.1//EN" "http://www.w3.org/Graphics/SVG/1.1/DTD/svg11.dtd" [
	<!ENTITY ns_flows "http://ns.adobe.com/Flows/1.0/">
]>
<svg version="1.1"
	 xmlns="http://www.w3.org/2000/svg" xmlns:xlink="http://www.w3.org/1999/xlink" xmlns:a="http://ns.adobe.com/AdobeSVGViewerExtensions/3.0/"
	 x="0px" y="0px" width="820px" height="610px" viewBox="-6.417 -0.807 820 610"
	 style="enable-background:new -6.417 -0.807 820 610;" xml:space="preserve">
<style type="text/css">
<![CDATA[
	.st0{fill-rule:evenodd;clip-rule:evenodd;fill:#E6E600;}
	.st1{fill-rule:evenodd;clip-rule:evenodd;fill:#B30000;}
	.st2{fill-rule:evenodd;clip-rule:evenodd;fill:#851F9A;}
	.st3{fill-rule:evenodd;clip-rule:evenodd;fill:#E1FA9F;stroke:#C1D72E;stroke-width:1.0391;}
	.st4{fill-rule:evenodd;clip-rule:evenodd;fill:#26DEFF;}
	.st5{fill-rule:evenodd;clip-rule:evenodd;fill:#FF0000;}
	.st6{fill-rule:evenodd;clip-rule:evenodd;fill:#FF33C4;}
	.st7{fill-rule:evenodd;clip-rule:evenodd;fill:#FF6600;}
	.st8{fill-rule:evenodd;clip-rule:evenodd;fill:#FFFFFF;}
	.st9{fill-rule:evenodd;clip-rule:evenodd;fill:#6D17E6;}
]]>
</style>
<defs>
</defs>
<path id="america-north_1_" class="st3" d="M323.287,29.002c-0.587-1.686-0.436-4.107-2.271-4.545
	C320.979,26.767,321.703,28.314,323.287,29.002z M164.212,60.818c1.319,1.544-0.566,1.485,0.756,3.03
	c-3.067-1.047-2.396,1.644-4.545,1.515c-0.124,3.905,5.083,3.936,3.031,7.575c1.457,1.066,3.047,2.003,5.301,2.273
	c0.143-4.083,1.074,0.035,3.787-0.759c-1.233-4.94,2.842-2.143,0.759-5.303c3.508-0.783,3.356-5.227,6.818-6.06
	c0.309-1.825-1.384-1.646-0.759-3.787c-1.349-0.419-3.146-0.39-3.789-1.515c0.475-5.051-2.2-4.508-0.757-9.092
	c-2.138-0.625-1.959,1.068-3.786,0.758c1.022-3.108-1.447-1.634-2.273-2.272c-4.667-3.616-0.805-12.759-8.333-11.361
	c-1.417,3.438,3.009,1.03,2.273,3.787c-3.309-0.371-1.613,2.335-4.546,0.757c-0.925,3.452,2.078,2.973,1.516,6.06h-3.03
	c0.748,3.354,0.117,1.982-0.759,4.546c1.853,1.085,2.767,1.179,3.789,1.517c-0.765,2.132-3.22-0.211-4.546,0
	c0.527,4.994,3.075,5.782,3.03,9.846C160.986,60.394,160.62,63.072,164.212,60.818z M150.576,57.031v-4.544h-3.03
	C146.782,55.775,149.219,55.862,150.576,57.031z M324.803,57.789c0.604-1.417,1.265-2.775,1.515-4.546
	C322.076,52.599,320.27,57.629,324.803,57.789z M152.848,76.725c1.757,2.28,3.227,0.447,6.063,0c-0.683-2.217-0.683-2.326,0-4.544
	c-3.25-0.541-3.545-4.032-6.818-4.545C148.702,71.173,155.982,74.399,152.848,76.725z M127.85,72.938
	c0.329-2.853-1.598-3.449-3.029-4.546c-0.145,2.665-7.101,2.451-4.545,5.304C122.552,71.742,125.037,74.802,127.85,72.938z
	 M122.548,83.543c5.515-1.826,1.201-5.071,4.545-7.574c-1.996-1.443-5.581,0.587-7.575,1.514v4.545
	C121.585,81.476,121.042,83.533,122.548,83.543z M118.002,79.755c1.578-1.508,0.024-3.235-1.514-3.786
	C114.91,77.476,116.464,79.204,118.002,79.755z M143.001,77.483v2.272h2.273C145.41,78.104,144.653,77.345,143.001,77.483z
	 M138.457,85.058c-0.232-2.331-2.191-6.85-3.789-5.303C136.33,81.125,135.05,85.433,138.457,85.058z M162.696,78.999
	c-2.371,0.154-5.561-0.512-6.819,0.757C155.396,83.506,163.956,82.852,162.696,78.999z M169.513,84.3
	c1.286-1.271,0.604-4.446-2.27-3.787C167.091,82.682,167.146,84.647,169.513,84.3z M99.822,96.421
	c1.012-0.735,4.952-2.804,3.789,0.757c4.536-0.983,2.472-6.387,6.059-6.817c-0.954,0.889-0.607,3.147,1.515,3.03
	c-0.213-1.981,0.276-3.259,2.272-3.03c-0.509-3.993-0.697-4.22,0.759-7.575c-1.082-0.181-1.278-1.248-2.273-1.515
	c-0.108,2.917-0.992,2.043-4.544,1.515c-2.71,3.352-4.137,7.983-8.335,9.848C99.48,93.734,98.18,96.548,99.822,96.421z
	 M118.76,88.087C115.881,85.994,115.432,90.868,118.76,88.087L118.76,88.087z M128.609,100.208
	c-2.628,0.607-2.913-1.129-5.303-0.758c0.365-3.396-2.679-3.382-3.031-6.06c-2.131,0.774-3.227,0.86-3.029-2.272
	c-5.4,1.214-3.882,4.474-6.061,8.332c1.133,0.13,2.796-0.27,3.031,0.758c-2.681-0.407-3.903,0.642-4.546,2.272
	c1.343,0.93,3.993,0.552,4.546,2.272c1.341-0.931,3.067-1.476,3.786-3.03c-1.142,4.948,5.619-0.545,6.061,1.516
	c-1.839,1.443-4.578,1.985-6.817,3.029c-0.552,2.066,1.505,1.525,1.514,3.031c7.124-0.595,8.604-7.251,15.149-4.546
	c1.47-1.875,3.287-6.381,1.517-9.091c-2.384-0.866-1.842,1.189-3.03,1.516c0.231-1.747-2.188-0.842-2.274-2.272
	c0.407-2.93-1.351-3.698-0.756-6.818c-2.41,0.623-2.809,3.252-3.788,5.304C129.093,95.471,125.951,96.394,128.609,100.208z
	 M143.759,96.421c-2.937-2.743-1.8-4.854-5.302-6.817c-1.93,1.607,2.247,3.375,0,5.302c0.956,1.134,4.016,1.356,2.271,3.03
	c4.038-0.803,0.188,1.595,2.273,2.272c0.931-0.655,4.561-2.412,5.304-0.758c-1.662,2.055-0.84,1.886-1.517,4.545
	c7.78,3.102,7.151-7.434,5.304-13.635c-3.023,0.416-2.282,0.416-5.304,0c-2.136,1.277,2.913,3.479,0,5.302
	c-0.471-1.799-1.017-3.526-3.029-3.787C142.868,93.884,145.209,96.335,143.759,96.421z M323.287,93.391
	c0.103-0.997,0.114-5.481-0.756-3.03C322.431,91.357,322.415,95.841,323.287,93.391z M137.698,103.996h2.272
	c0.213-1.727-0.183-2.848-1.513-3.03C138.217,101.99,137.378,102.413,137.698,103.996z M324.803,101.723h-2.272
	c-0.212,1.727,0.183,2.849,1.515,3.03c0.009-1.001,1.329-0.692,1.514-1.515C324.97,103.072,324.679,102.604,324.803,101.723z
	 M99.064,133.539c0.521-2.764,4.784-1.781,5.305-4.544c-0.368-4.922,5.896-9.752,10.603-12.121c-1-3.042-3.333-4.745-5.302-6.817
	c-4.313,3.196-7.659-3.978-14.392-0.757c2.11,7.837-1.117,10.852-3.03,18.18C96.583,127.435,96.433,131.879,99.064,133.539z
	 M149.818,132.024c5.664-1.034,8.191-10.643,2.274-12.878c1.063-1.459,2-3.047,2.272-5.302c-0.954-0.312-1.549-0.978-1.516-2.273
	c-3.47,0.97-3.459,2.489-6.816,2.273c0.55,2.066-1.507,1.524-1.516,3.029c3.152,0.167,4.164,3.503,1.516,5.303
	c-1.786-0.234-1.411-2.631-3.787-2.273C142.233,126.48,149.438,125.838,149.818,132.024z M141.487,142.628
	c0.726,0.487,2.897-1.53,4.545,0c-0.161-5.9-7.266-4.853-8.334-9.847c2.042-3.331-1.531-7.538-1.514-11.363
	c0.646-2.132,2.447-3.107,2.273-6.06c-1.725-0.368-3.871-1.503-5.304,0c-0.87,2.22,3.633,2.813,1.515,3.787
	c-1.593-0.498-3.367-2.005-4.545-0.758c-1.058,4.207,4.463,10.08,0,10.606c0.216-4.274-2.314-9.781-5.302-8.333
	c1.333,0.183,1.727,1.303,1.516,3.028c-1.322-0.057-2.358,0.171-3.03,0.759c1.902-3.17-1.858-3.168-3.788-4.546
	c-1.209,0.56,0.172,3.709-2.272,3.03c0.368-1.723,1.503-3.87,0-5.302c-7.391,1.621-8.989,5.977-10.605,12.12
	c2.34,0.437,3.97,1.586,6.059,2.272c-1.935,0.337-3.482,1.063-4.545,2.272c2.648,5.351,12.63-1.131,14.394,4.545
	c-4.577-0.031-9.46-0.368-12.119,1.515c0.651,3.388,2.935,5.146,7.573,4.544c1.053,0.97,0.467,3.578,1.516,4.547
	c7.41,0.593,11.336-2.3,15.149-5.303c0.462,3.047,9.157,6.156,9.091,0.756C143.733,143.807,138.996,143.752,141.487,142.628z
	 M251.324,143.386c-0.873-2.663-2.262-4.808-6.059-4.545c-1.603,4.143,3.224,4.128,1.516,6.059
	C249.164,145.263,249.74,143.822,251.324,143.386z M205.118,153.992c-1.525-2.947-2.842-2.033-6.818-3.03
	c-0.888,1.479-2.488,4.239-0.757,6.061C203.694,157.406,199.385,151.37,205.118,153.992z M189.965,174.444
	c-3.73-0.701-1.901-2.083-3.029-3.787c-1.881-2.845-5.194-3.016-6.816-3.787c-0.727-1.411,2.268-2.533,0-3.03
	c-2.829,1.33-3.281,6.946-2.273,9.848c-1.562-0.665-3.402,1.964-1.515,2.272c2.171-3.086,2.03,2.44,3.788,2.271
	c1.112-1.917,2.7-3.358,3.786-5.302C184.9,173.883,188.845,178.499,189.965,174.444z M183.15,182.019
	c2.469,0.197,3.645-0.899,3.786-3.03c-1.757-0.241-2.907,0.122-3.786,0.758V182.019z M192.238,184.292v-3.029h-1.517v3.029H192.238z
	 M2.863,191.868c0.877,0.636,2.029,0.998,3.786,0.757C7.093,189.553,3.535,190.218,2.863,191.868z M225.569,231.257
	c1.177,0.174,3.535,2.913,4.546,0.759C228.938,231.842,226.58,229.103,225.569,231.257z M203.601,310.038
	c-4.053-0.893-10.951-6.393-14.391-6.817c-1.615-0.198-7.462-0.086-6.819,3.029c0.643-1.125,2.439-1.095,3.79-1.513
	c3.549,1.648,11.002,2.931,10.604,6.06C198.839,310.326,202.798,311.758,203.601,310.038z M205.118,311.554
	c2.035-0.521,1.464,1.565,2.272,2.273c-1.112,0.008-6.198-0.287-3.789,0.757c2.605-0.078,5.44-0.391,6.06,1.514
	c0.168-2.356,3.772-1.278,6.062-1.514C214.057,310.698,208.099,310.438,205.118,311.554z M221.782,314.584
	C217.939,312.518,218.96,317.229,221.782,314.584L221.782,314.584z M195.27,315.342c1.099-0.415,3.915,0.884,3.787-0.758
	C197.956,314.999,195.142,313.699,195.27,315.342z M277.838,4.004h-2.273C278.828,6.533,281.049,9.579,277.838,4.004z
	 M331.622,29.002c-4.709,0.435-2.943,4.453-6.819,6.06c-0.02-0.736-0.927-0.587-1.516-0.757c-3.16,1.886,0.434-2.867-2.271-3.03
	c-1.278,4.277-3.771,7.34-6.062,10.605c-1.166-3.464,6.698-11.613,1.516-16.666c-3.604-0.826-3.093,2.465-3.03,5.304
	c-3.199,0.085-4.326,2.239-6.062,3.787c-4.223-2.458,4.079-2.787,3.031-6.817c-4.952-4.18-13.683-0.479-16.664,3.787
	c-3.451-3.593,2.974-4.255,4.542-6.061c0.577-0.66-0.239-1.15,0.759-1.515c4.891-1.785,11.873-0.248,16.667-3.029
	c-0.651-2.418,1.19-2.343,1.513-3.787c-1.132-3.676-5.201-5.033-6.817-4.546c-1.694-0.326-0.307-3.733-0.758-5.303
	c-2.894,1.529-6.94,1.973-10.604,0.758c1.768-2.525,8.784,0.198,9.089-3.788c-10.047-4.466-14.901-4.823-28.028,0
	c-0.966,2.987,2.074,1.968,3.029,3.03c-1.34,0.931-3.068,1.476-3.787,3.03c-3.116,0.354,0.595-1.904-1.514-3.03
	c-2.973,1.621-4.381-1.258-6.818-2.272c-0.238,1.824-2.748,3.675-5.303,2.272c1.688,4.083-1.28,0.444-3.03,2.272
	c1.236,6.341,14.273,0.879,15.152,7.576c-2.708,0.447-5.473-4.959-12.122-3.03c-1.341,1.396,4.749,5.801,3.03,7.574
	c-1.795-0.226-2.693-7.732-6.815-5.303c-1.464,5.475,7.819,8.669,5.301,13.635c-4.639-3.44-6.301-9.859-12.877-11.361
	c-3.605,3.353,5.026,8.275,0.758,9.847c-0.43-1.348-2.106-0.108-0.758,0c-3.623,0.626-0.863-4.38-5.301-6.817
	c-0.566,3.154,0.924,5.971-0.759,10.604c-1.087-2.932,0.787-8.142-1.514-11.361c-3.493,1.559-7.186,2.918-10.605,4.544
	c-1.559,1.938,2.298,3.31,2.271,6.061c-1.396,1.551-2.262-6.869-6.06-3.03c-2.398,2.298,0.171,6.685,0,9.848
	c-0.997,3.185-2.488-0.003-4.546,0c-4.366,3.208-7.028,8.122-9.845,12.878c0.431,3.449,4.137,1.94,5.301,3.03
	c0.974,5.563-0.159,6.349-1.515,10.604c-8.492,0.181-8.738,4.733-15.151,7.576c-0.851,7.942,7.433,4.914,5.303,9.09
	c3.205,2.198,6.807-2.223,9.091-0.758c-0.131,4.92-8.534,1.466-11.364,5.303c1.202,2.586,3.619,3.958,7.575,3.788
	c-4.338,1.449-3.653,3.493-0.757,6.059c2.471,0.69,5.465-4.951,5.303,0c1.895-2.793,3.583-1.086,6.059-3.029
	c3.815,1.486,6.618,3.987,9.848,6.061c-0.629,4.669,2.085,5.994,3.787,8.332c-0.413,1.102,0.885,3.915-0.757,3.788
	c3.966-0.175,1.814,10.931,5.303,9.848c-2.153,4.342-2.555,5.549-2.273,10.604c3.396,1.817,5.278-4.024,4.545-1.515
	c0.666,0.856,2.401-0.182,0.759,2.272c2.344-0.48,2.105,2.86,2.27,3.03c-0.438-0.448,4.655-0.565,1.516,1.515
	c1.868,3.682-5.021-3.325-6.817-0.758c1.516,3.282,5.351,4.243,9.09,5.303c-1.367,2.248-2.423,5.969-1.515,8.333
	c-5.041-2.217-4.819,3.876-6.062,7.575c-0.354,1.616,1.083,1.442,2.274,1.515c0.564,2.334-2.613,0.923-1.516,3.788
	c3.813,8.852,6.578,19.557,11.363,25.756c3.518-1.269,6.227,2.842,9.088,4.544c4.497-5.267,2.055-12.978,6.818-17.423
	c-3.057-3.555,2.757-3.448-0.757-6.061c2.465-1.209,2.822-1.645,3.03-3.787c9.462,1.111,13.003-7.49,16.665-14.393
	c7.991,2.907,15.344-6.485,21.212-10.605c-3.542-0.883-6.253-2.66-9.848-1.515c2.758-1.818,2.585-4.12,3.03-6.817
	c3.915,0.124,1.112,6.968,6.818,5.303c2.867-7.754-3.336-10.063-5.304-13.637c0.323-3.253,2.586,3.04,5.304,2.273
	c-0.247-0.834-0.648-2.02-0.76-3.03c0.018,0.153,0.384-1.731,0.76-0.757c-1.333-3.444-4.045-3.93-5.304-6.061
	c0.751-3.849,2.868,2.192,4.544,2.272c0.808-1.465,3.49-1.056,4.546-2.272c0.698-3.476-1.602-3.954-4.546-3.787
	c2.387-2.396,5.448-0.377,7.576-3.029c-2.196-2.873-1.958-2.835-3.786-7.576c1.678-0.416,1.078,1.446,2.271,1.516
	c1.35-0.935,0.363-3.416,0-5.303c-0.239-1.239-1.447-1.199-1.515-1.515c-0.064-0.297,1.238-1.859,1.515-1.516
	c-1.894-2.349-2.256-0.699-4.545-2.272c0.662-2.429-1.167-2.369-2.273-3.029c1.196-3.194,2.709,1.652,4.547-1.517
	c1.542-2.632,3.963,2.2,5.301,0c1.082-6.654-4.393-2.514-5.301-7.574c1.221-2.548,2.397,2.382,3.786,0
	c-0.772-2.658-4.024-6.176-5.303-0.758c-1.929-2.982,2.302-8.558,0.757-11.363c4.322-0.367,1.23-3.44,4.546-4.544
	c-0.72-4.762-2.412-6.28-2.274-9.848c0.818-3.268,6.061-1.138,9.092-4.546c-0.228-4.074-5.227,0.065-5.303-3.03
	c1.702-2.769,5.623,0.749,7.576-2.271c1.08-3.435,5.065-5.23,6.816-9.848C337.281,30.984,334.31,28.754,331.622,29.002z
	 M170.272,32.791c-1.652-0.138-2.409,0.619-2.273,2.271c2.058,0.471,3.548-3.426,4.544-1.515c-3.793,3.679-0.993,2.886-3.787,6.061
	c4.071,2.805,9.891-2.538,11.364-2.272c-0.936,3.61-5.493,3.598-9.091,4.545c0.174,2.604,2.255,3.302,4.543,3.787
	c0.829-1.734,2.178-6.862,4.548-4.545c-2.732,0.3-2.312,3.748-3.788,5.302c3.249,1.793,6.49,0.257,8.331-1.515v2.272
	c7.826-1.096,6.885-7.117,11.363-10.604c-0.963,1.813-2.767,2.789-2.274,6.06c1.412,0.725,2.535-2.269,3.032,0
	c-1.453,1.502-7.32,2.605-3.788,4.545c-3.297,0.238-5.082,1.989-8.333,2.272c0.074,3.486,5.033,6.047,3.031,9.091
	c-1.208-3.335-3.641-5.448-5.304-8.333h-5.302c-0.083,3.757,0.746,3.722,0,6.818c3.413,0.351,6.417,6.699,3.789,8.332
	c1.192,1.332,4.056,0.993,5.303,2.273c-5.163-0.211-12.234-1.553-11.365,7.575c4.124-0.826,2.421,1.129,6.062-0.759
	c-2.297,2.006-0.351,4.813-1.516,6.818c0.898,1.864,2.861-1.552,3.789,0.757c0.126,1.644-2.688,0.344-3.789,0.758
	c-0.849-2.935-2.326-6.691-6.059-4.546c0.625,4.064,1.35,3.32,2.27,6.818c-4.059,1.461-5.768,3.087-7.573,5.303
	c-1.684-1.754-2.955,0.257-5.302,0c-0.322-3.644-4.73-4.898-7.576-3.788c-0.491,3.774,2.102,4.465,3.03,6.818
	c1.869,0.1,3.651,0.114,4.546-0.758c3.375,3.607,1.091,8.488,2.272,13.635c1.696,0.829,3.797,1.255,5.303,2.273
	c0.657-1.108,1.134-2.401,3.03-2.273c-0.043,0.969-0.97,1.05-0.759,2.273c9.002-0.135,11.719-0.583,18.178-0.759
	c-0.865-2.382,1.191-1.84,1.517-3.029c-3.747-0.261,0.631-1.988,0-3.788c-2.917-4.556-11.013-4.339-14.391,0
	c-2.952-1.042-5.199-2.746-6.818-0.757c1.16-3.686-2.2-2.852-2.273-5.303c3.469-1.564,0.857-1.086,0-3.787
	c5.821,1.908,7.123,0.177,12.121,2.272c0.753-2.78,5.786-1.283,8.333-2.272v3.029c3.349-1.196,6.603-2.487,6.817-6.817
	c-1.445-1.421-1.37,0.45-3.788,0c2.23-2.686-0.773-2.829-1.517-3.03c3.989-1.027,6.207-3.738,4.548-6.817
	c2.693,0.171,4.539-0.512,5.301-2.271c-1.189-0.073-2.625,0.101-2.271-1.516c1.121,0.877,1.909,0.877,3.03,0
	c0.935-2.451-2.452-0.579-1.516-3.03c1.875,1.883,2.245-1.603,3.787-2.273c-2.01-0.766-4.309-1.244-4.544-3.787
	c1.321-0.217,4.067,2.42,3.788-0.757c-0.344-1.929-5.316,0.769-3.788-3.03c2.923,1.705,3.5-0.895,6.817-0.757
	c0.71-3.487-2.424-3.131-3.787-4.546c3.306-0.529,3.369,2.188,6.062,2.273c2.012-0.711,3.707-4.248,2.271-6.061
	c4.46-4.08,9.402-12.313,14.392-18.181c-4.473-0.914-6.629,4.449-9.089,3.03c2.174-1.132,3.929-3.138,3.787-4.546
	c5.266-2.203,11.398-4.353,12.119-12.877c-1.575-0.429-2.448-2.164-3.787-0.757c0.112-2.327-2.664-3.406-0.757-5.303
	c-3.264,0.656-2.397,0.529-3.787-1.516c-2.268,0.79-4.653,5.409-6.818,3.788c1.136-1.643,3.791-1.765,3.788-4.546
	c-5.572,1.297-8.236-6.395-11.363-0.757c-0.072-1.19,0.102-2.627-1.514-2.272c-2.231,0.294-1.481,3.569-3.03,4.545
	c0.168-1.432-0.854-1.672-0.759-3.03h-6.816c0.882,2.907,2.709,4.865,3.786,7.576c-2.23-0.798-2.632-3.427-3.786-5.304
	c-3.418,0.963-1.872-1.029-6.063-0.758c-0.035,2.563,1.766,3.287,3.031,4.546c-3.63,1.561-3.524-4.487-6.058-1.515
	c0.748,0.6,2.886,3.56,1.515,3.787c-1.012-0.756-1.488-2.048-3.029-2.272c0.746,3.353,0.116,1.981-0.759,4.545
	c1.008,3.03,4.279,3.802,5.3,6.817c-4.914-3.256-6.697-4.956-11.36-8.332c-0.825,1.457,1.006,4.805-3.029,4.545
	c-0.56,2.58,2.792,1.248,3.029,3.029c-3.108-0.773-3.032-0.342-6.818-0.758c-0.165,5.501-6.36,1.043-6.817,6.817
	C167.152,34.022,169.232,29.094,170.272,32.791z M139.214,66.121c0.405,3.559,1.519,2.018,1.514,5.303
	c-1.825,0.31-1.646-1.384-3.788-0.758c-0.168,1.433,0.854,1.671,0.758,3.03c7.072-2.333,0.697,3.014,6.061,0
	c2.542-0.019,2.048,3.002,3.029,4.544h3.03c1.061-3.982-3.268-5.269-0.756-8.333c-2.667-0.867-4.004-3.066-5.303-5.302
	c-0.161,0.851-0.84,1.18-1.514,1.516c0.153-4.284-2.646-4.907-6.062-3.788C135.725,65.156,137.825,67.418,139.214,66.121z
	 M109.67,94.906c-0.956,1.385-5.093,3.933-1.515,5.303C108.624,98.85,111.001,95.559,109.67,94.906z M161.938,107.026
	c0.313-3.343-0.205-5.854-1.515-7.575c-2.679,0.257-3.903,0.044-4.546,0.758C155.733,103.388,155.444,107.184,161.938,107.026z
	 M234.66,228.986c1.351-3.194,5.104-3.985,8.334-5.304v-6.062c-2.938-0.027-4.579-1.507-3.788-4.543
	c-3.09,0.563-2.609-2.442-6.06-1.516c0.801-2.821-1.596-2.445-2.274-3.787c0.361-7.936-4.884-10.266-6.061-16.666
	c-3.643,1.658-2.457,8.146-7.575,8.333c-2.999-2.642-5.726-7.036-3.03-11.361c-5.404,0.101-6.333-4.271-9.088-6.818
	c-3.127,1.67-6.215-0.022-9.091-0.759c-1.883,6.209,2.448,11.822-1.515,17.423c5.937,2.439,4.717,14.979-2.273,15.151
	c0.292,4.648,2.987,7.825,1.514,12.121c-1.542-1.524-1.482,0.334-3.031,0.758c-0.37-2.912-3.839-2.724-3.785-6.062
	c1.652-0.481,2.411,2.146,2.273-0.756c-1.728-1.042-2.848,1.953-3.029,0v-7.576c-9.626,2.244-13.397-10.689-21.968-6.817
	c0.465-3.496-1.703-4.36-1.516-7.574c-1.88,0.11-3.677,0.14-3.786-1.516c0.668-7.936,3.496-15.962,9.088-16.666
	c-1.279-3.641,0.912-5.423,5.303-5.302c2.871-3.597,0.874-7.409,4.545-9.848c1-1.896-2.994-2.372-0.759-3.031
	c6.351,2.546,8.193,0.741,11.363-5.302c-2.564-1.685-3.097-6.094,0-7.574c-0.578-3.967-4.844-4.246-6.061-7.576
	c2.765-0.445,8.398,3.478,6.061-0.758c1.683,0.59,2.953,1.592,5.301,1.516c1.042-1.728-1.951-2.848,0-3.03
	c2.923,2.127,5.104,4.998,6.818,8.333c-1.189,0.072-2.625-0.102-2.271,1.516c2.129-0.517,4.979-0.822,3.787,2.272
	c6.633-1.307,5.962,10.695,0.758,12.877c1.023,0.744,1.513,2.021,2.273,3.031c-4.122,3.019-9.444-2.35-9.848,5.302
	c2.314,1.761,6.151-0.015,8.331-0.758c1.586,2.772,7.182,3.628,5.303,7.574c3.871,1.494,5.446,3.734,12.121,5.303
	c0.216-4.274-6.452-5.646-5.303-8.332c3.065,0.991,6.617,5.479,8.332,5.302c-0.468-0.744-1.645-3.792,0.757-3.787
	c-1.15-5.972-5.335-7.424-8.332-12.877c4.267,0.93-0.312-2.656,3.03-3.031c3.104,1.946,2.706,7.396,7.575,7.576
	c-1.38-3.274,3.479-4.483,3.787-8.332c-2.674-1.543-2.951-4.54-5.302-3.03c1.082-3.353-2.563-1.982-2.272-4.545
	c-3.529,1.942-3.788-3.034-6.818-3.787c-0.45-2.418,1.422-2.345,0-3.79c1.025,0.239,1.446,1.08,3.03,0.759
	c-0.903-2.09-2.151-2.658-0.757-5.303c-1.389-2.048-2.565-0.131-3.787-1.515c0.181-1.081,1.245-1.277,1.514-2.272
	c-4.785-1.813-6.742-0.2-6.818-6.06c-2.394-1.041-2.531-0.165-5.301,0c-1.78-3.92-2.361-5.949-6.817-9.091
	c4.277-3.49-3.688-7.261-8.333-6.817c0.164,3.624,1.542,6.035,3.787,7.575c0.247-0.872,3.304-2.608,3.788-0.758
	c-1.555,0.718-2.1,2.445-3.032,3.787c-2.254-2.231-3.143,1.722-4.543,0.758c2.516-4.427-0.266-6.998-1.515-11.362
	c-5.367,0.189-8.038,3.071-9.091,7.575c-0.004,2.023,2.397,1.646,2.274,3.787c-1.746-1.503-0.841,0.19-2.274,0.758
	c-0.455,2.729,2.313,2.232,2.274,4.545c-6.262-3.997-4.29-11.846-0.757-17.422c-10.632-0.56-10.084,9.784-10.607,17.422
	c1.65,1.382,5.333,0.729,6.059,3.03c-2.313,0.547-2.759-0.774-4.543-0.758c-0.644,5.65,5.079,3.772,6.059,6.06
	c-0.805-0.032-1.922,0.357-0.756,0.758c1.728-0.337,3.828-1.158,5.301,0.758c-4.6,0.974,0.461,11.728-5.301,9.848
	c-0.608,2.627,1.127,2.911,0.756,5.303c-1.043-0.033-1.662,0.356-2.273,0.758c-3.023-3.615,1.184-10.122-3.786-12.122
	c-1.225,1.554-0.591,4.966-2.273,6.062c0.561-2.022-2.39-5.676,0-6.817c-1.308-1.217-4.682-0.367-5.301-2.272
	c1.495-0.524,2.019-2.021,2.271-3.788c-3.056-2.247-1.951-8.652-6.059-9.847c2.27-1.73,1.534-5.295,2.272-6.818
	c1.433-0.17,1.671,0.854,3.03,0.758c1.3-2.993,2.766-5.818,3.787-9.09c-3.934-0.923-5.746-2.411-9.845-1.516
	c-2.657,3.742-0.114,15.83-1.516,20.453c-0.32,0.219-1.453-0.884-1.517-0.758c-2.142,4.376-0.226,11.278,4.546,12.878
	c-1.047,3.697-0.235,3.437,1.515,3.788c-0.877,2.152-1.564,4.496-4.544,4.545c-0.824,1.939,2.3,3.61,0,4.545
	c-0.008-1.002-1.329-0.692-1.517-1.516c1.658-3.91-0.837-3.611-2.271-6.06c2.678,0.407,3.903-0.644,4.544-2.272
	c-3.209-0.349-2.253-3.439,0-3.788c-3.549,0.772-4.308-1.246-6.058-2.272c-0.374,2.657-1.932,4.13-3.03,6.061
	c1.844,0.428,3.897,0.648,3.786,3.03c-3.095-0.104-0.972,3.837-2.272,3.787c-7.034-0.513-13.239,0.151-15.149-6.817
	c-2.117,1.166-5.875,0.689-6.06,3.787c1.771,2.193,5.052-3.084,6.06-1.515c-1.332,1.447-2.76,2.796-4.547,3.787
	c-0.82,1.94,2.303,3.61,0,4.545c-1.039-2.322-2.225-4.8-5.301-5.302c0.38,0.061-1.67,1.39-2.272,1.515
	c-2.897,0.599-6.763,0.736-8.334-1.515c0.183-1.333,1.304-1.728,3.03-1.516c-0.283-3.755-3.941-4.139-8.333-3.787
	c-3.324-1.979-5.938-4.667-10.606-5.303c-1.34,0.678-0.964,3.074-3.786,2.272c0.964-0.896,0.323-2.861-0.757-3.788
	c-1.307,0.46,0.057,3.593-1.517,3.788c-4.066,0.509-2.464-8.614-6.058-6.061c2.645,2.945-5.659,5.401-6.06,5.303
	c0.339-2.187,3.259-1.791,3.787-3.788c-5.84-0.319-6.234,6.364-12.118,3.788c-2.226,1.739-1.104,2.436-3.03,3.788
	c-4.945-2.379-10.178-4.471-14.395-7.576c-6.885,3.025-11.966-4.626-18.938-1.515c0.466-2.434-2.725-1.038-0.757-3.029
	c-2.97-0.236-6.457-0.05-8.334-3.03c-3.262,0.269-2.871,4.195-7.574,3.03c-4.355,3.22-7.241,7.907-10.605,12.12
	c-1.263,0-2.523-0.001-3.788,0c-1.279,6.582,6.006,4.602,5.304,10.604c4.196,0.776,3.979,1.398,5.302,4.546
	c-0.976,1.042-3.291,0.749-5.302,0.757v-3.029c-4.521,1.699-5.509,2.905-9.091,6.061c4.748,0.092,2.466,2.543,4.547,5.302
	c5.167,0.23,8.219-1.461,11.36-1.515c-2.233,1.899-0.495,2.536,0,5.302c-3.562,1.066-3.554,3.424-8.332,2.272
	c-0.318,3.469-2.711,4.864-3.028,8.333c2.643,2.303,1.026,4.396,3.788,6.817c2.315,0.547,2.757-0.774,4.543-0.757
	c1.254,2.63-0.632,4.008,1.515,6.059c2.295-3.804,3.911,0.715,5.303,0.757c-0.346-0.009,0.64-1.464,0.757-1.513
	c0.64-0.271,1.856,0.912,2.793,0.22c-1.216,1.296,0.234,3.426-0.521,5.082c-0.161,0.351-2.013,0.223-2.272,0.758
	c-1.5,3.079-0.7,1.446-3.03,3.029c-3.033,2.062-0.529,3.909-3.788,2.272c0.015,3.573-7.928,3.15-6.06,6.061
	c7.837-4.335,17.77-8.874,24.241-18.181c-0.925-0.085-1.794-0.227-1.514-1.515c3.371-1.44,4.128-9.488,8.332-7.575
	c-3.113,1.895-3.626,5.225-3.788,8.333c4.121,0.079,3.551-4.529,8.333-3.787c0.415-1.101-0.886-3.916,0.757-3.787
	c4.797,2.112,12.102,5.449,17.424,4.544c1.014,3.565,4.842,4.864,6.818,7.575c1.642,2.255,1.674,4.836,3.787,6.818
	c-0.408-2.68,0.64-3.903,2.273-4.546c-0.034,1.043,0.355,1.664,0.755,2.272c-1.079-0.295-1.277-0.909-2.272,0
	c-0.256,3.417,2.289,3.602,3.031,7.575c1.826,0.31,1.646-1.384,3.787-0.758c1.67,2.209,2.354,3.726,1.514,6.818
	c5.725,1.241,4.302,4.968,6.818,9.089c-0.892,0.121-2.148-0.13-2.272,0.759c2.712,2.337,5.561,4.538,8.333,6.818
	c1.354,5.671,0.652,17.284,0,24.997c3.646,5.705,5.592,9.652,8.333,15.149c9.067,1.032,8.383,11.814,14.392,15.907
	c-1.063,0.197-0.863,1.661-1.514,2.271c5.596,1.474,5.893,8.247,10.605,10.607c-1.354-6.536-9.164-13.013-11.364-21.21
	c4.75-0.709,4.568,3.511,5.301,6.817c3.263,1.788,6.417,3.684,6.818,8.332c4.308,2.005,7.075,5.55,9.09,9.848
	c-0.634,0.879-0.999,2.03-0.756,3.787c6.859,3.111,15.019,10.866,23.483,7.575c3.242-0.027,2.993,3.741,6.059,5.303
	c2.675,1.36,6.799,0.208,9.089,1.515c0.176,0.1,0.564,2.057,0.757,2.273c1.775,1.973,4.323,1.656,3.031,5.301
	c3.799-2.342,2.857,3.38,6.818,3.03c-1.961-4.408-2.943-9.206-1.515-15.149c-3.963-3.274-9.713,0.759-12.121-2.272
	c2.293-3.263,3.07-8.043,4.546-12.12c-3.12-0.596-3.887,1.161-6.819,0.758c-0.433,5.929-6.812,8.053-12.876,6.061
	c-4.472-5.15-3.791-13.02-3.03-21.968c4.936-3.578,9.911-5.771,15.906-3.03c1.386-6.58,10.197-0.32,13.637-2.272
	c3.154,3.157,1.915,10.708,6.815,12.12c2.548-5.04-1.632-9.313-2.271-13.636c2.151-5.929,8.039-8.123,12.119-12.119
	c0.084-2.249-1.38-5.866-0.757-7.577c0.969,0.043,1.049,0.972,2.273,0.759c0.631-2.028,1.318-6.101,3.03-7.576
	c0.655-0.564,1.14-0.688,1.451-0.663c-0.175-0.167-0.402-0.428-0.693-0.851c2.833,0.056,5.235-0.318,6.816-1.517
	c-4.314-5.81,8.303-10.534,12.12-10.603c-1.386,1.152-4.491,2.859-2.272,5.302c3.444-2.867,8.406-4.219,12.119-6.818
	c-0.417-1.349-0.39-3.146-1.514-3.788c-0.335,1.936-1.062,3.482-2.272,4.546c-0.105-1.146-3.382,0.313-4.546-1.515
	c2.836-1.647-1.341-2.854-0.758-0.757c-1.451-0.641-2.048-3.324-0.757-4.547c-1.727,0.213-2.846-0.182-3.029-1.515
	c1.745,1.657,4.227-0.224,3.786-3.03c-6.208-1.397-9.665,3.952-12.12,3.787c2.315-2.988,5.535-5.072,8.334-7.573
	C226.944,228.747,229.997,229.556,234.66,228.986z M205.811,257.864C206.357,258.386,206.345,257.908,205.811,257.864
	L205.811,257.864z M31.648,200.957c-0.01,1.506-2.067,0.964-1.516,3.032c1.876,1.651,4.507-0.534,5.303-2.275
	c-1.885-0.112-0.22-2.564,0-3.03C32.151,198.702,32.61,204.83,31.648,200.957z M77.098,215.349c-1.262,1.027,2.146,6.548,3.03,5.303
	C78.167,219.834,80.858,214.368,77.098,215.349z M248.295,232.016h-5.301c0.866-2.382-1.19-1.841-1.517-3.029
	c1.634-0.641,1.224-3.323,2.273-4.547c-5.401,1.672-4.899,9.242-8.333,12.878c1.794,1.583,8.183-1.585,8.333,2.272
	c-0.42-0.002-0.859,0.614,0,0.758c0.524-1.495,2.021-2.019,3.787-2.271c-0.108,0.894-1.346,1.717,0,2.271
	c0.425-1.711,1.183,0.918,2.274-0.758C249.776,236.701,246.091,234.771,248.295,232.016z"/>
<path id="europa_1_" class="st3" d="M392.221,74.454c1.971-0.556,1.985-3.064,3.03-4.545c1.852,1.084,2.768,1.179,3.786,1.515
	c-0.002,0.761,0.613,0.901,0.759,1.516c-3.607-0.324-2.934,3.629-6.817,3.03V79c3.133,0.318,4.338-2.905,6.059,0
	c-4.198-0.051-1.954,2.401-5.302,2.271c-0.216,3.829,3.569,4.823,4.546,5.303c-1.579,1.509-0.024,3.235,1.515,3.787
	c1.353-1.206-0.595-8.127,3.029-9.09c0.644-5.669,0.629-11.997,6.819-12.12c0.517-2.731-4.019-2.054-1.516-4.545
	c-5.424,1.132-3.354-5.231-6.818-6.06c0.883-0.128,0.823-1.197,0.756-2.272c-1.507-0.764-2.651-1.893-3.785-3.031
	c-2.529,3.443,2.254,9.561-1.516,11.363c0.797-1.535-0.202-6.515-2.271-7.575c0.899,2.252-3.195,3.254-3.79,1.516
	c-0.299-1.815,3.45,0.42,2.273-2.272c-0.809-1.254-2.297,1.936-4.544,0c-0.676,1.851-1.766,3.284-1.518,6.06
	C391.426,64.715,388.014,71.17,392.221,74.454z M409.645,82.029c1.364-2.732,2.375,1.051,3.029,1.515
	c1.767-1.262,2.896-3.163,3.788-5.303c-4.225,1.383-2.46-2.915-3.03-3.787c-0.88-1.342-4.642,0.494-2.273-3.788
	c-1.878-0.11-3.676-0.141-3.788,1.516C410.688,73.985,408.682,79.06,409.645,82.029z M508.878,86.574
	c-3.375,3.433-7.105,8.863-13.635,6.817c-2.813,2.82-7.178,7.055-11.363,10.605c3.909,0.616-2.015,2.035,1.515,3.03
	c-3.479-0.127-1.275,6.437-6.06,6.817c3.226,3.18-1.292,5.753-3.03,8.333c3.6,1.688-1.621,4.665-2.273,6.817
	c4.011,3.834,6.296,8.001,12.878,7.575c-4.987-6.864-5.423-11.252-2.273-15.907c-0.068,0.099,0.513-3.383,0.111-3.151
	c0.533-0.56,1.65-0.383,2.162-1.396c1.018-2.009,2.622-5.151,2.273-7.574c2.434,0.467,1.037-2.727,3.03-0.758
	c1.862-11.265,17.963-8.296,19.693-19.695C510.402,88.08,510.944,86.022,508.878,86.574z M471.761,144.903
	c-1.826,0.31-1.647-1.384-3.789-0.759c-0.531,2.332-0.531,1.456,0,3.788C470.864,148.552,470.905,146.32,471.761,144.903z
	 M328.593,161.566c-2.583,3.396-5.737,1.705-9.092,1.516c0.775,2.131,0.861,3.228-2.273,3.031c0.303-2.827-0.604-4.445-3.03-4.547
	c-0.383,1.892-2.014,2.532-2.271,4.547c1.844-0.489,3.895-1.53,3.788,1.515c-0.071,1.194-1.933,0.593-1.517,2.272
	c2.765-0.1,2.799,3.984,0.757,4.545c4.568-0.779,5.348,2.227,9.091,2.271c2.696-4.119,10.03-3.605,9.848-10.604
	C330.988,165.734,331.495,161.945,328.593,161.566z M390.706,209.29c-1.504-1.26-0.963,0.069-3.027,0v2.273h1.514
	c0.461-0.043,0.896-0.113,0.756-0.757C388.602,210.438,390.278,209.999,390.706,209.29z M349.802,222.167
	c-0.291-4.271,1.227-6.728,0.758-10.604c-2.386-0.378-2.963,1.65-4.546,0c-1.139,1.388,0.024,5.074-3.788,3.786
	c1.069,4.092,1.621,4.991-0.757,8.333C345.146,225.905,346.202,222.182,349.802,222.167z M383.13,256.256
	c0.537-0.558,1.89-3.708-0.758-3.03C382.503,254.36,382.104,256.021,383.13,256.256z M383.13,257.014
	c-2.26,1.888-0.638,3.718-1.514,6.06C384.656,263.085,385.127,257.784,383.13,257.014z M390.706,266.86
	c1.896,0.63,2.975,2.076,5.303,2.272C397.875,265.197,391.723,265.407,390.706,266.86z M403.584,57.031
	c2.644,0.574,5.719-2.293,7.574,0c-1.383,1.144-4.246,0.805-5.303,2.273c1.015,2.521,7.465-0.394,6.818,3.787
	c3.452,0.927,2.971-2.078,6.06-1.516c-0.616-3.885,3.348-3.767,3.029-9.089c-3.25-2.909-8.378-0.027-9.089-4.546
	c-0.419,1.349-0.391,3.146-1.516,3.787c-1.119-0.877-1.91-0.877-3.029,0c0.661-1.938-3.236-4.759-1.516-3.029
	c0.45,3.228-3.197,2.357-4.547,3.788C405.174,53.095,401.676,55.604,403.584,57.031z M489.94,138.084
	c1.586,4.883,4.374,3.909,5.304,9.09c-3.084,1.066-1.794,2.563-3.789,3.788c-0.636-0.879-0.999-2.031-0.757-3.788
	c-4.023,2.446-7.276,1.009-9.849,4.546c-2.091-0.182-0.804-3.74-2.271-4.546c-3.248,3.217-7.068,4.756-12.122,7.576
	c-0.012,2.007,0.421,4.46-1.514,4.544c-3.327,0.55-3.929-1.627-4.546-3.787c0.091-2.182,3.23-1.314,3.03-3.787
	c-0.041-1.785-3.985-3.51-5.304-1.516c0.006,4.517,2.568,9.066,0,12.877c-0.726-1.292-2.38-1.659-3.785-2.271
	c-0.743,2.792-3.438,3.633-5.305,5.303c-0.563,2.331,2.079,1.456,1.516,3.787c-2.791,3.357-7.251-4.165-7.574-0.757
	c-2.153,1.714,3.287,2.216,3.028,4.544c-1.081,0.182-1.276,1.248-2.271,1.515c-3.464-2.261-7.542-5.63-5.302-11.362
	c-2.51-1.279-4.097-3.479-5.303-6.06c3.605,0.848,10.129,6.341,14.392,5.302c10.832-2.64-0.861-13.916-6.06-17.423
	c-3.501-0.373-6.278-0.552-7.574-2.271c-0.397-0.527,1.606-1.869-0.758-1.516c-0.418-0.539-4.858,1.642-6.06-1.515
	c0.207-1.56,2.821-0.713,3.03-2.272c-2.448-1.595-4.721-3.361-7.575-4.545c-0.089,1.932-0.145,3.897-2.273,3.788
	c-0.3-1.304,1.124-1.942,0-2.273c-1.098,1.427-1.113,3.937-3.03,4.545c-1.114-2.391,3.477-4.517,0-4.545
	c-1.708,0.751-4.571,3.844-7.574,4.545c2.332,0.755-0.845,2.049-1.516,2.272c-1.543-0.224-2.019-1.518-3.03-2.272
	c-1.032,3.388-1.784,2.615-4.545,4.545c0.329,1.685,1.741,4.108-0.758,4.546c-1.443-0.325-1.901-1.632-3.788-1.516
	c-1.079,4.647,2.125,1.474,3.029,3.03c-2.658,2.083-2.197,4.887-3.786,7.575c-0.177,0.302-1.97,0.405-2.272,0.758
	c-2.83,3.295-2.252,9.213-4.544,12.877c-0.308,0.489-2.342,0.685-3.03,1.515c-1.815,2.185-0.693,5.096-4.547,3.787
	c-0.999,3.043-3.26,4.82-6.06,6.061c0.898,9.054-1.423,14.724,4.545,17.423c3.206-0.831,4.376-3.703,6.818-5.302
	c2.981,2.574,2.369,8.74,5.304,11.361c-0.42,1.671-1.112,4.18,1.514,4.547c0.416-3.119,4.193-2.879,6.059-4.547
	c-1.713-8.027,3.2-9.425,5.305-13.634c-4.188-2.543-4.501-5.942-3.788-12.121c3.151-3.654,10.329-5.639,8.332-12.12
	c1.318-3.361,6.9-6.124,9.09-2.271c-1.025,6.547-5.685,9.466-9.09,13.635c1.159,3.888,1.154,5.553,0.759,9.848
	c2.036-0.522,1.464,1.565,2.271,2.272c5.676,0.373,8.271-2.338,12.879-3.03c0.394,1.121,1.12,1.909,1.515,3.03
	c-0.517,1.504-2.306,1.733-3.029,3.03c-3.389-0.938-8.232-1.293-9.092,2.272c-0.356,3.256,2.04,0.97,2.274,2.271
	c-0.104,2.422,0.746,5.798-2.274,5.303c-1.334-0.687-1.25-2.788-3.029-3.029c-2.585,2.001-2.686,6.877-1.514,10.604
	c-3.06-1.039-2.682,1.359-3.789,2.273c-5.162-3.217-7.859,1.252-12.877,2.272c-0.185-4.313-3.943-0.998-6.062-0.758
	c0.569-2.589-3.074-0.961-2.271-3.788c0.925-0.085,1.794-0.226,1.515-1.514c-2.309-2.024,0.167-4.675,0-8.334
	c-7.358,2.512-4.521,7.569-3.031,14.394c-3.116,0.234-6.149,1.563-9.847,3.03c-0.065,4.228-2.411,6.173-6.06,6.818
	c0.435,3.966-3.139,3.931-4.544,6.061c-0.207-0.69-3.354-2.013-3.03-0.759c1.785,0.207,0.463,3.354-0.759,3.031
	c-0.643-0.715-1.864-0.502-4.544-0.759c0.069,3.789,5.855,4.291,6.817,8.333c0.595,2.493,0.271,5.539-1.514,8.333
	c-6.082,0.558-10.769-1.83-15.907,0c2.906,7.268-1.518,10.849,0.757,17.422c2.897-0.121,6.007-0.451,6.061,2.273
	c5.675-1.814,14.54-2.176,12.12-9.848c2.025-2.267,4.031-4.553,7.574-5.303c-0.464-2.786-1.318-3.771,1.515-5.303
	c2.621-0.599,3.199,0.842,4.545,1.516c2.918-2.557,3.4-2.935,7.574-3.788c2.805,7.775,15.252,9.18,14.395,18.18
	c2.758-2.217-0.495-5.87,2.272-7.575c0.756,0.141,2.048,3.318,2.271,1.516c-2.349-3.071-6.514-3.952-9.09-6.818
	c-0.717-0.797-0.073-2.081-0.757-3.029c-1.294-1.795-4.839-2.098-3.031-6.061c1.433,0.17,1.671-0.854,3.031-0.756
	c0.129,1.132-0.271,2.793,0.757,3.029c0.312-1.292,0.979,0.158,2.272,0c0.502,5.812,7.799,4.828,9.848,9.09
	c-0.776,5.26,3.297,10.348,6.818,13.634c-0.457-2.728,2.311-2.23,2.273-4.543c-2.671-0.107-2.16-3.398-3.032-5.305
	c3.415,0.047,7.726-3.861,9.091,0.759c2.951-6.681,3.436-15.639,10.605-19.696c2.031,3.236,3.362,1.083,4.544,3.032
	c-0.095-0.158-1.98,1.033-2.223,1.434c0.361-0.13,2.702,2.016,3.052,2.814c0.539-1.863,3.545-1.259,4.475-2.734
	c-1.982,0.212-3.258-0.278-3.029-2.273c1.371-1.938,6.67-3.899,8.33-3.03c-1.456,2.431-0.836,4.132-3.785,6.062
	c2.921,1.368,5.286,3.296,7.574,5.302c8.502-3.219,12.533,7.999,18.938,6.818c-2.836-2.719-3.724-7.388-5.304-11.363
	c1.289-1.491,2.324-3.232,4.547-3.788c0.3-6.106-5.354-6.259-3.787-13.635c5.442,1.15,4.19-4.396,8.331-4.545
	c5.31,2.458,9.221,4.893,16.666,2.273c-0.88-4.927-5.993-5.622-4.545-12.877c3.527-0.767,4.196-4.392,3.788-9.092
	c-7.081-2.535-5.886-12.936,0.757-15.149c-0.433-15.079,2.118-27.171,13.635-30.301c2.277-2.771,0.723-9.378,2.272-12.878
	C501.683,142.501,493.681,142.424,489.94,138.084z M436.985,247.628c-0.027,0.094-0.055,0.188-0.068,0.295
	C437.053,247.908,437.057,247.794,436.985,247.628z M351.317,210.048c0.903,1.438,3.434-0.73,1.515,2.271
	c2.331,0.53,1.455,0.53,3.787,0c-2.042,1.969,0.926,2.285,0.757,4.546c-0.529,2.465-3.447,1.36-3.787,2.272
	c2.985,0.739,0.513,3.69-0.757,4.544c1.303-0.04,1.941,0.584,2.271,1.516c-0.339,1.489-3.708,3.787-2.271,4.546
	c2.867-2.94,8.989-2.371,12.877-3.03c-1.97-3.187,1.211-3.182,1.514-6.061c-0.879-0.637-2.031-0.998-3.788-0.757
	c0.766-4.214-4.561-8.45-6.059-12.878c0.725-1.548,1.547-2.997,2.273-4.546c-1.31-2.258-4.682,1.085-5.303-0.757
	c0.231-1.787,2.632-1.41,2.273-3.786c-4.186-0.398-4.042,3.532-6.817,4.543C352.123,204.379,350.369,208.542,351.317,210.048z
	 M403.584,200.958c-0.223,0.466-1.884,2.916,0,3.031C402.544,202.262,405.538,201.139,403.584,200.958z"/>
<path id="antartica_1_" class="st3" d="M216.479,554.713c0.617-1.21,2.873-4.621,0.757-6.061
	C217.071,550.828,213.473,553.919,216.479,554.713z M205.118,572.137c-2.146,0.883-5.009,1.051-6.061,3.03
	C202.16,575.239,205.012,575.063,205.118,572.137z M90.732,594.104c1.532-0.986,2.412,5.134,6.818,3.789
	c-0.077-4.228-2.482-2.682-4.545-3.789c2.905,0.138,0.276-0.619,0.757-2.271c-0.879-0.638-2.032-1.001-3.788-0.759
	C90.105,592.208,89.705,593.868,90.732,594.104z M99.822,599.407c4.054,0.44,5.54-2.852,4.547-5.303
	c-1.813,0.46-5.495-0.95-6.061,0.759h1.513C100.44,597.481,98.408,598.06,99.822,599.407z M124.063,605.47
	c2.08-2.432,4.816-7.126-0.757-7.576c2.467,3.543-3.395,7.115-5.303,6.06c1.632-3.578,2.998-6.451-0.756-8.333
	c-2.144-0.126,0.629,4.668-1.517,4.544c-4.065,0.896-4.019-0.012-6.818-1.514c-2.704,6.521-23.48,2.259-33.328,4.544
	c-1.954-0.065-0.798-3.243-3.788-2.271c-1.033,1.246-2.593,2.36-2.272,4.547c-2.171-0.824-5.759-0.122-7.576,1.512
	c26.513,1.768,56.307,0.254,84.084,0.757v-0.757C139.551,603.385,129.893,609.009,124.063,605.47z M695.224,558.502
	c0.166,0.17,0.34,0.333,0.519,0.492C695.735,558.714,695.583,558.521,695.224,558.502z M717.192,572.894
	c-1.645-0.627-1.683-2.859-3.785-3.03c-1.136,2.304,2.288,4.984-0.759,4.546c-0.956-10.667-11.599-10.702-16.905-15.415
	c0.023,0.845-1.248,2.481-2.031,2.538c-0.973-1.784-3.025-1.75-3.788,0v-3.03h-9.092c0.199-2.218-1.712-2.328-1.514-4.544
	c-2.771-0.499-2.906,1.638-5.302,1.514c0.604-1.416,1.264-2.776,1.516-4.544c-10.914-1.654-19.356-5.762-31.06-4.548
	c-1.05,1.224-0.64,3.906-2.272,4.548c-4.012,0.727-5.14-1.429-6.061-3.789c-6.886,4.609-18.283,4.346-26.514,5.304
	c0.065-2.46,4.518-0.534,3.789-3.79c-2.793-0.235-3.295-2.764-4.546-4.544c-2.39-0.369-2.675,1.366-5.302,0.757
	c-0.851,2.18-0.955,5.104-3.786,5.304c-5.439-1.886-9.044-5.604-16.667-5.304c-1.343,2.192-3.529,3.542-6.06,4.545
	c-3.81-1.271-9.775-1.94-15.149-1.515c-15.612,1.24-29.179,9.827-35.604,19.697c-2.141,0.623-1.962-1.07-3.785-0.76
	c-4.547,5.807-3.917,16.793-12.123,18.938c1.553,2.819,0.045,6.354-3.029,4.547c1.382-7.205,4.104-13.064,6.061-19.695
	c-2.469-0.136-3.646,1.778-3.787-1.516c0.528-3.185,3.448,0.725,3.787-2.273c-1.769-3.257,3.185-6.494,0-12.12
	c-10.484,0.71-20.45-2.267-28.028-3.785c0.225-1.542,1.519-2.02,2.272-3.032c-2.827-3.574-11.546-4.166-15.15-0.757
	c-0.548,2.315,1.307,2.229,0.757,4.546c-2.216,0.195-2.324-1.715-4.543-1.516c1.711,2.332,0.594,3.028,0,4.544
	c-2.35-0.004-1.993-1.152-4.545-2.271c-0.12,0.891,0.13,2.148-0.759,2.271c-6.153,0.666-8.896,4.739-13.635,6.819
	c0.345,3.625-0.546,6.016-2.273,7.574c-1.576-3.134-5.232-2.294-7.573-3.03v-3.03c-5.343,1.378-0.382-3.155-3.79-3.027
	c-3.339,1.128,0.021,4.456-0.756,7.574c-6.383,1.229-15.957,12.86-19.696,3.029c-0.894,1.123-0.654,3.384-3.029,3.03
	c-1.265-1.197,0.987-3.479-2.271-3.789c0.12,3.152-1.396,4.666-4.546,4.546c-2.414-1.154,1.597-5.195-1.515-4.546
	c-0.922,2.513-5.128,1.756-5.304-0.757c-1.359,2.21-4.988,1.489-6.817,0c-1.4,1.12-1.134,3.915-3.786,3.787
	c-2.257-0.061-3.421-5.106-5.304-3.03c-3.683,3.396-17.814,2.888-20.452,9.848c-1.427-1.334,1.036-2.345-1.514-3.03
	c-2.683,1.063-7.064,0.064-9.848,0c-0.31-1.824,1.383-1.646,0.756-3.787c-1.783-0.017-2.229,1.305-4.542,0.759
	c0.633,1.843,1.173,4.916-1.517,5.304c-1.396-0.676-2.328-5.686-3.786-3.789c1.045,1.922-2.192,3.884-4.546,1.514
	c-1.319,3.844,3.288,1.764,3.031,4.546c-2.047,7.845-10.811,5.352-12.119,12.878c1.415-0.041,1.602,0.584,0.756,1.516
	c1.881,0.984,3.143-2.225,3.786,0c-1.135,1.137-1.353,3.188-3.03,3.787c-0.878-0.638-2.028-1.001-3.786-0.757
	c0.176,3.964-2.647,4.93-2.273,9.088h408.297v-28.782C726.737,578.185,723.216,568.314,717.192,572.894z M226.327,540.321
	c0.077,5.632-5.666,5.441-5.302,11.363c-0.967-0.042-1.05-0.97-2.273-0.757c3.04,4.449-0.823,8.524,1.515,12.118
	c-0.112,1.656-1.908,1.626-3.788,1.517c-0.234,5.483,4.253,11.57,3.788,17.423c-0.666,8.389-9.265,9.534-16.667,11.283
	c0.001-1.992-0.272-4.261,0.759-5.223c-1.433,0.169-1.672-0.854-3.03-0.759c-0.481,1.651,2.147,2.409-0.759,2.272
	c0.053,2.175,1.663,2.79,2.948,3.729c-1.867,0.442-3.656,0.925-5.219,1.575c-0.032-1.045,0.357-1.664,0.757-2.273
	c-1.866-0.102-3.648-0.113-4.545,0.757c0.021-3.05-1.729-4.329-3.787-5.301c-0.791,3.132-1.061,5.094-3.787,7.574
	c-4.228-3.825-8.375-4.444-13.635-6.061c-0.353-1.451,2.334-3.261-0.759-3.029c0.114,1.566-2.201,4.034-5.3,4.544
	c0.411-1.005,3.458-5.208,0-5.304c-1.714-0.353,1.743,4.112-0.758,4.547c-9.186,2.076-11.875-2.237-22.726-1.515
	c-0.073-1.191,0.101-2.628-1.514-2.272c-2.134,0.765,0.208,3.219,0,4.544c3.46,0.075,7.828-0.757,8.331,2.272
	c-2.135,2.554-6.668-1.469-8.331,0.758c0.46,0.044,0.896,0.115,0.756,0.759c-0.459,0.042-0.896,0.111-0.756,0.757
	c4.752-0.715,2.717,5.36,6.818,5.303c0.169,1.432-0.853,1.671-0.758,3.03c1.798,0.471,3.525,1.017,3.787,3.028
	c-1.135,0.13-2.795-0.27-3.029,0.757h78.78c-3.493-1.363-0.009-3.2,0.757-6.06c1.25,0.014,0.423,2.104,1.515,2.274
	c1.958-1.881-1.776-4.753,3.03-3.789c-2.103-2.927,1.295-6.608-2.272-9.847c2.376,0.858,2.001-0.22,3.786,0.757
	c0.072-4.342-3.494-4.749-1.514-9.089c-1.136-0.132-2.796,0.269-3.03-0.759c0.206-1.563,3.354-0.181,3.03-2.271
	c-3.395,0.055,0.459-2.81-0.758-5.304c-0.891-0.119-2.149,0.13-2.272-0.759c2.775-1.768-2.49-5.246,0.758-9.088
	c-1.748-1.504-0.842,0.188-2.273,0.757c-2.003-2.198-0.05-3.642-2.273-5.304c-0.087,0.924-0.225,1.792-1.513,1.515
	c-0.009-0.999-1.33-0.69-1.517-1.515c-0.012-2.496-1.465-9.216,3.787-9.849c-1.783-0.203-0.462-3.354,0.759-3.03
	c1.442,2.841,0.739-0.414,3.788-0.757c-3.35-0.365,0.149-2.874-1.516-4.545c5.042-1.894,5.709-7.46,10.604-4.544
	c-1.844-3.249-0.729-2.49,0.76-5.305C234.455,532.289,233.04,538.954,226.327,540.321z M206.632,575.926
	c1.537,1.69-2.997,2.356-4.545,2.271c-0.69,3.217,1.238,3.815,3.031,4.544c-0.137-2.419,1.637-2.165,3.787-3.784
	c-0.232,1.745,2.189,0.84,2.273,2.271c-0.069,1.195-1.933,0.593-1.516,2.273c1.411,0.725,2.532-2.27,3.031,0
	c-1.479,2.722-5.723-2.032-6.061,1.514c1.626,1.402,5.55,0.514,8.334,0.757c4.826-7.533,0.389-18.247-2.273-24.997
	c-1.827-0.311-1.648,1.384-3.788,0.759c-0.549,2.313,1.309,2.229,0.757,4.544c-1.081-0.181-1.276-1.246-2.272-1.514
	c-0.289,2.561,3.354,1.191,2.272,4.544c1.879-0.111,3.676-0.143,3.787,1.516c-1.895-0.128-2.37,1.163-3.03,2.271
	c0.561,1.21,3.708-0.173,3.03,2.273C210.684,573.861,208.943,575.704,206.632,575.926z M157.395,581.985
	c-0.811,1.992-0.873-0.722-0.189-1.389c-3.463,2.51-6.252-2.635-6.629,1.389c-1.381-1.725-6.107-2.001-6.817,0.755
	c6.198,0.717,8.039,3.067,13.636,3.03C157.596,583.549,158.439,582.958,157.395,581.985z M319.502,593.347
	c-0.612,1.407-0.98,3.063-2.273,3.787c2.804-1.453,1.887,4.559,3.03,2.273C318.551,597.44,320.867,594.333,319.502,593.347z"/>
<path id="asia_1_" class="st3" d="M487.667,36.578c-0.966-0.042-1.048-0.971-2.272-0.757c-0.17,0.588-0.02,1.494-0.757,1.515
	c-0.168-0.591-0.634-0.879-1.516-0.758C482.712,39.617,487.519,37.706,487.667,36.578z M566.449,54
	c0.336-2.946,4.304-2.262,6.818-3.029c-1.354-2.571-0.599-4.992,0.756-6.817c-2.196-7.66-8.482-7.393-11.36,0
	c3.435,0.685-1.57,4.611-2.274,6.06C563.658,50.226,563.18,53.986,566.449,54z M504.333,42.638c0.031-2.303,0.44-4.985-2.271-4.545
	v2.272c-1.109,1.416-4.156,0.894-3.79,3.788C500.452,46.11,502.742,43.584,504.333,42.638z M480.093,43.396
	c0.561,1.209,3.708-0.174,3.029,2.272c4.291-0.755,5.204-1.503,7.575-3.03c-0.588-0.17-1.493-0.021-1.515-0.757
	c0.848-1.092,0.817-1.85-0.756-2.273c-1.6,1.686-3.624,0.905-7.578,0C482.12,42.065,482.787,42.053,480.093,43.396z M466.457,47.183
	c0.597,2.601-0.706,3.905-2.271,2.272c0.622,3.22,1.71,1.27,3.786,3.031c0.472-4.581,5.811-4.291,6.818-8.333
	c-3.743,0.408-0.414-1.932-3.786-2.272C468.572,43.67,471.225,49.088,466.457,47.183z M495.244,48.699
	c0.646-2.133,2.446-3.108,2.272-6.061c-2.438-0.166-3.206,1.34-6.06,0.758v4.545C493.212,47.698,494.365,48.062,495.244,48.699z
	 M463.427,47.941c0.905-1.462,2.594-4.135,4.545-2.272c-0.195-5.108-6.256-0.178-7.575,0.757
	C462.176,47.41,462.093,46.041,463.427,47.941z M483.88,50.213v3.029c3.307,0.373,1.611-2.334,4.547-0.756
	c0.563-1.899,0.095-2.396,2.271-3.788c-0.877-0.637-2.031-1.001-3.788-0.758C487.588,50.386,484.44,49.004,483.88,50.213z
	 M477.064,48.699c0.17,1.432-0.854,1.671-0.759,3.029C479.823,52.643,479.944,48.716,477.064,48.699z M574.023,51.728
	c-7.169,0.557-6.972,4.199-9.849,8.334c4.076-0.793,1.355,5.21,4.548,5.302c1.876-1.365,6.037,4.736,9.847,1.515
	c-3.269-4.478,3.731-10.447-3.03-13.636c-0.073,1.191,0.102,2.627-1.516,2.272C574.107,53.631,575.444,53.17,574.023,51.728z
	 M563.418,57.789c1.024-0.744,1.513-2.021,2.273-3.03c-3.016,0.49-3.046-2.005-6.062-1.516
	C559.972,55.68,561.279,57.151,563.418,57.789z M590.689,71.423c0.127-3.409-2.867-3.697-3.029-6.817
	c-1.412-0.724-2.532,2.269-3.029,0c0.229-1.767,1.615-3.263-0.759-3.788c0.04,1.417-0.582,1.604-1.515,0.758
	c-1.228,5.337-3.521,9.609-4.544,15.15C581.643,74.498,587.464,74.257,590.689,71.423z M688.408,103.24
	c-4.383-1.588-7.886-1.055-9.847-3.788C677.33,105.411,686.849,109.08,688.408,103.24z M603.568,110.056
	c1.506,0.01,0.963,2.067,3.031,1.515c0.236-1.023,1.075-1.446,0.756-3.029C605.473,108.428,604.211,108.933,603.568,110.056z
	 M666.44,116.875c2.41,0.115,3.333,1.717,6.061,1.515C673.708,113.214,665.88,110.976,666.44,116.875z M514.938,119.904
	c0.206-1.562,3.355-0.181,3.031-2.272c-1.083-0.182-1.277-1.247-2.274-1.516C514.863,116.401,512.814,119.147,514.938,119.904z
	 M756.583,133.54c-0.292-5.226-9.216-3.229-8.332,1.515C751.318,134.839,753.515,133.754,756.583,133.54z M768.705,176.716
	c4.091-0.91,4.014,2.345,6.816,0.759v-0.759C772.422,176.482,771.086,174.029,768.705,176.716z M674.016,232.016
	c-2.287-5.205-1.017-10.932-3.03-15.15c-3.98,5.675-0.269,10.287-1.516,18.939C672.542,236.097,670.01,230.788,674.016,232.016z
	 M672.5,240.348c-1.673-0.601-0.984-3.56-3.03-3.786c0.451,1.569-0.936,4.976,0.756,5.303
	C669.563,238.333,672.192,242.906,672.5,240.348z M667.198,256.256c-2.62,1.011-2.807,16.588-9.091,11.363
	c0.095,2.618-1.479,3.57-2.272,5.303c-3.596-1.567-8.693,1.216-10.604,3.788c3.72-1.196,3.552,1.498,4.544,3.029
	c0.068-2.459,4.518-0.533,3.789-3.788c-1.883-0.984-3.144,2.223-3.789,0c2.22,0.197,2.328-1.712,4.545-1.515
	c-0.112,1.881,0.392,3.145,1.516,3.786c1.776-4.386,7.401-3.709,10.605-5.301C665.925,265.558,671.997,261.642,667.198,256.256z
	 M642.957,278.223c1.942,2.749-0.031,4.704,3.031,6.062c0.396-2.784,2.167-4.192,0.756-6.818
	C644.604,276.841,644.783,278.534,642.957,278.223z M624.021,305.495c0.725-2.305,1.528-4.53,2.271-6.818
	C622.769,297.957,620.938,304.321,624.021,305.495z M597.506,313.827c2.77,2.39,4.202-1.408,5.304-3.03
	C599.735,310.5,597.531,311.074,597.506,313.827z M633.869,328.22c-0.896-0.109-1.718-1.35-2.273,0
	c2.072,1.263-1.301,3.646,1.515,4.544C632.559,330.448,634.417,330.535,633.869,328.22z M627.051,334.278
	c1.041-0.031,1.662,0.356,2.271,0.759c-0.118-1.886,1.189-2.345,1.514-3.787h-2.27C629.118,333.318,627.059,332.774,627.051,334.278
	z M536.149,334.278c-0.981,2.199-0.981,5.376,0,7.576c2.417,0.651,2.341-1.191,3.787-1.517
	C539.474,337.521,538.501,335.209,536.149,334.278z M592.206,358.521c-3.514-0.651-0.795,1.189-2.273,1.514
	c-4.483-7.198-11.157-13.878-21.21-17.423c8.675,6.979,10.192,21.117,22.725,24.24C590.375,362.328,593.279,360.943,592.206,358.521
	z M611.9,372.155c-7.367-2.513-12.394-2.726-20.453-4.547C594.124,372.764,607.333,373.736,611.9,372.155z M772.491,163.839
	c-1.062-3.735-3.952-5.643-8.333-6.06c-0.128,1.133,0.271,2.796-0.757,3.03c-3.85-11.472-18.083-20.113-32.574-21.211
	c-0.322,3.104,0.704,4.854,1.517,6.817c-1.505,0.01-0.963,2.066-3.03,1.516c-0.723-2.308-4.317-1.741-3.787-5.303
	c2.375,0.838,2.137,0.488,3.03-1.515c-5.527,1.314-15.32,3.928-21.21,0c0.873-0.896,0.857-2.678,0.758-4.545
	c-2.935-4.576-10.672-2.734-15.909-1.516c-2.921-3.834-6.434-3.55-6.059-9.09c-6.933-0.65-14.465-4.718-19.696-4.545
	c3.006,2.092-2.11,2.362-3.029,3.03c1.023,2.252,2.037,3.828,0.757,6.816c-4.583-2.779-10.674,1.815-15.907-2.271
	c-0.013,3.017-0.725,5.334-2.272,6.817c-3.325-1.978-4.638-5.968-6.062-9.848c0.97,0.041,1.051,0.971,2.273,0.757
	c-0.731-3.958-1.959-4.399-0.757-8.332c-1.653,0.138-2.409-0.62-2.273-2.273c-5.259,2.306-5.12-2.159-9.847-0.757
	c-0.451,1.569,0.937,4.978-0.756,5.304c-6.357-0.326-10.186-0.365-9.85-5.304c-3.682,0.692-7.92-1.708-11.362,1.516
	c0.419-3.659-5.3-3.76-7.574-3.788c-0.937,2.451,2.449,0.579,1.513,3.029c-3.164,1.634-7.076,2.519-9.847,4.547
	c4.364-9.229,16.582-13.067,17.422-23.483c-0.978-3.897-3.565-2.391-3.03-6.818c-5.843-2.074-7.826-1.356-12.876,0.758
	c0.437-1.584,1.878-2.161,1.515-4.545c-2.345-0.99-2.942,0.597-4.545-1.516c0.324-1.444,2.165-1.37,1.515-3.787
	c-2.332,0.564-1.453-2.08-3.787-1.515c-3.63,1.803-7.899,5.708-6.059,10.604c-2.033,2.46-3.354,0.021-5.304,1.515
	c0.951,0.312,1.546,0.978,1.516,2.272c-4.193-0.063-5.018,2.533-7.576,2.273c-0.171-1.432,0.854-1.672,0.756-3.03
	c-8.302,3.916-17.473,6.616-22.724,15.15c1.132,1.673,5.389,5.611,2.271,6.817c-0.337-3.93-9.511,1.092-13.634,0.757
	c-0.427,3.458,1.343,4.718,0.758,8.334c3.061,0.182,3.625,2.859,5.179,4.548c0.043-0.003,0.08,0,0.123-0.003
	c-0.006,0.04-0.018,0.074-0.025,0.113c0.234,0.241,0.491,0.46,0.782,0.644c-2.73,2.297,2.927,8.817-2.271,9.09
	c1.585-1.973,0.594-5.099-0.757-4.544c-0.4-2.88,1.839-3.117,2.246-5.19c-0.034-0.035-0.064-0.073-0.098-0.109
	c-6.776,0.504-6.99-5.557-12.754-6.064c-0.975,3.43,0.779,2.12,1.515,5.303c-2.378,0.374-2.001-2.611-3.786-0.758
	c-1.397,5.183,4.619,2.954,4.543,6.818c-1.133-2.151-5.767-0.798-6.816-3.031c-0.735-1.548,2.753-8.438-0.759-9.847
	c-0.017,1.785,1.305,2.229,0.759,4.545c-5.703,1.832-4.304,7.382-1.515,11.363c-2.293,2.284-1.861,4.844-1.515,8.331
	c4.973-2.609,11.333,2.773,7.574,6.062c0.811-2.831-1.881-2.159-1.516-4.546c-2.314-0.547-2.759,0.774-4.544,0.758
	c2.205,7.315-2.336,10.232-5.304,14.393c-0.55-1.723-5.241,0.697-4.545-2.271c10.978-2.219,3.898-15.717,6.061-25.756
	c-0.682-1.339-1.83-2.212-2.272-3.788c2.258-1.276,2.187-4.884,2.272-8.332c-1.722-1.31-4.234-1.828-7.574-1.515
	c-0.457,6.361-3.27,10.367-6.062,14.392c2.847,1.07,1.872,5.63,0.758,6.817c2.632,1.316,6.269,6.54,3.03,9.09
	c-1.259-1.518-2.033-3.521-4.547-3.787c1.846,14.219-10.116,14.627-14.391,22.726c-0.238,6.581-1.191,12.444-0.759,19.695
	c-4.146,0.902-5.396,4.702-6.817,8.334c1.689,4.117,5.971,5.644,6.061,11.36c-0.605,3.183-4.056,3.521-4.546,6.818
	c-0.354,5.404,4.011,6.09,4.546,10.605c-3.075,0.965-6.678,1.401-10.605,1.516c-2.363-1.172-2.712-4.358-6.817-3.79
	c-2.309,2.239-4.622,4.47-7.575,6.062c0.799,4.758,2.845,8.265,4.545,12.12c1.125-3.253,6.697-3.449,8.332-2.273
	c-0.255,2.68-0.042,3.903-0.756,4.547h-3.03c-0.514,2.091-0.137,1.729-2.272,3.029c2.24,2.519,5.296,4.897,5.303,7.575
	c0.198-1.065,1.661-0.864,2.271-1.515c0.611,1.408,0.98,3.061,2.272,3.788c-0.551,1.722-5.243-0.698-4.544,2.271
	c2.977,1.063,1.83,6.251,3.029,9.089c-5.202,1.634-8.664-0.228-11.362-3.029c-0.221-3.248,1.054-5.007,2.273-6.818
	c-8.116-2.197-10.319-7.832-20.453-9.089c0.314,2.458,3.371,2.181,3.03,5.303c-6.788,7.477-17.734-5.883-23.483,2.273
	c-2.418-1.209-9.302-2.083-7.575,0.756c-0.133-1.234,4.956-1.528,3.788,0.757c-2.604-0.329-4.247,0.301-6.061,0.759
	c-1.975,11.543,13.854,11.892,21.209,9.089c-2.062,5.515-0.264,14.887-7.574,15.151c-0.594,3.371,1.01,4.545,0.758,7.575
	c3.141,0.205,2.952-0.995,5.303,0c4.736,12.433,14.849,19.491,16.666,34.847c13.645-2.07,28.125-9.705,35.602-20.453
	c-1.001-4.809-7.875-3.741-8.333-9.092c-1.119,3.428-5.224,3.865-9.09,4.546c-1.622-1.659,1.224-4.078-1.517-5.303
	c-0.085,0.925-0.225,1.794-1.513,1.515c0.131-3.267-4.062-5.767-5.305-9.848c2.2-1.474,1.967-2.499,5.305-1.514
	c1.339,4.974,5.411,7.212,9.847,9.091c0.696-1.325,2.367-1.673,4.546-1.518c2.863,7.217,14.938,3.456,21.21,3.788
	c0.543,4.256,4.435,5.16,7.574,6.818c-0.894,0.367-1.718,0.808-2.271,1.516c2.329,3.379,4.162,2.786,7.574,0.756
	c0.309,13.326,5.044,22.226,10.606,30.299c3.645-3.675,6.127-8.516,5.301-16.663c9.679-4.855,13.117-15.038,24.996-15.907
	c0.85,7.351,8.066,6.866,5.304,15.149c3.76,0.729,4.042-2.02,6.818-2.271c1.484,6.628,4.828,13.475,1.516,18.938
	c7.458,2.774,3.198,13.827,12.877,15.15c-0.208-3.074-2.409-4.158-1.515-8.335c-5.943-2.654-12.196-10.381-6.061-18.179
	c2.468,4.114,10.403,5.018,9.091,10.604c4.011-0.785,4.532-5.063,9.089-5.303c4.668-10.527-17.282-20.572,1.517-23.482
	c-0.213,1.728,0.181,2.848,1.513,3.029c-0.641-5.186,6.853-2.237,7.575-6.059c7.541,2.683,13.061-9.62,17.424-15.15
	c-2.427-3.86-0.223-10.954-6.06-14.393c1.441-3.105,4.985-4.104,6.818-6.817c-3.662-1.408-4.204,0.247-7.575,0.757
	c0.74-3.266-2.846-2.205-3.032-4.544c4.697-0.607,5.163-5.444,9.849-6.06c-0.002,0.758,0.614,0.899,0.759,1.513
	c-1.355,1.837-2.959,3.352-1.516,4.547c0.945-1.833,3.103-2.451,5.301-3.03c1.009,0.762,2.819,0.715,3.032,2.271
	c-1.067,0.197-0.864,1.662-1.517,2.273c1.618,0.908,4.127,0.923,4.545,3.029c-1.715,1.372-0.597,4.616,0,7.575
	c1.011-1.517,3.362-1.688,5.303-2.271c1.111-6.414-2.598-8.008-3.785-12.121c4.4-2.417,5.23-8.403,9.846-10.604
	c0.183,1.331,1.304,1.726,3.028,1.515c2.553-2.119,7.128-5.878,9.849-9.848c3.539-5.161,3.45-9.689,4.545-15.149
	c0.985-4.914,4.751-9.931-1.515-12.123c-2.825-0.804-1.199,2.843-3.787,2.273c-1.851-1.354-2.993-3.511-6.062-5.303
	c7.504-4.112,10.622-12.61,17.423-17.422c7.662,2.334,14.112-4.04,18.939,0.758c-0.589,0.169-1.495,0.02-1.517,0.757
	c1.985,1.431,4.431-1.738,8.334-0.757c-3.366-4.816,5.568-14.932,11.363-10.606c-1.202,1.134-0.559,3.099,0.756,3.788
	c1.444-1.589,2.064-3.997,5.303-3.788v-4.545c2.38,0.383,3.095-1.785,3.788,0.758c-4.707,10.191-13.024,16.771-19.695,24.997
	c-0.776,7.848,1.543,12.598,1.517,19.697c6.413-1.667,4.644-11.515,12.118-12.12c-1.508-2.309-0.349-8.116,2.272-6.062
	c-0.363-2.714-1.23-4.378,0-6.817c-1.304-0.298-1.942,1.124-2.272,0c0.319-3.973,2.49-6.098,3.788-9.09
	c5.229,1.166,8.346-4.843,14.391,0c2.862-5.977,9.888-7.79,14.395-12.12c1.057,1.159,3.923,2.151,5.302,0.757
	c-1.466-3.583-2.536-7.563-5.302-9.847c3.729,0.382,9.345-3.318,6.06-7.576c1.432,0.17,1.671-0.854,3.029-0.757
	c-0.528,2.332-0.528,1.455,0,3.788c6.661-2.345,6.303,5.437,12.121,6.06c0.675-1.852,1.767-3.284,1.515-6.06
	C770.628,166.52,771.265,164.887,772.491,163.839z M668.713,244.895c0.521,3.045-0.727,4.324-0.758,6.817
	c-1.992-1.969-0.597,1.225-3.03,0.757c0.52,2.379-0.087,3.096,0.757,3.787c2.345-0.892-0.116-1.902,1.516-3.03
	c3.142-0.868,2.95,1.594,5.303,1.517c-0.795-3.356,6.381-2.66,3.031-6.06C673.169,250.498,671.037,245.628,668.713,244.895z
	 M627.051,314.585c-2.144,0.626-1.965-1.068-3.788-0.758c-1.622,7.91-0.362,9.57,1.515,14.393c0.13-2.938-0.309-6.76,2.273-10.604
	C627.119,315.548,625.788,316.089,627.051,314.585z M635.382,334.278c-2.793,0.048-4.315,4.895-6.06,1.516
	c0.095,1.683-4.922,2.054-2.271,3.789v-1.516h3.785c-0.69,3.217,1.237,3.813,3.032,4.544c-0.033-2.966-0.442-4.386,2.271-3.028
	C636.512,337.19,634.774,336.908,635.382,334.278z M620.233,343.368c-2.677-0.352-2.664-3.396-6.06-3.03
	c-3.876,5.581-9.775,10.174-15.909,11.365c0.677,4.118,1.796,7.798,4.546,9.848c2.232,0.81,6.063-1.195,8.332,2.271
	c0.687-2.212,2.788-0.219,3.031-1.514c-0.755-3.046,2.335-8.762,5.303-10.604C615.036,350.439,617.011,344.48,620.233,343.368z
	 M663.411,107.027c0.983-3.444,4.979-1.539,9.09-1.515c-0.099-1.36,0.752-1.773,2.271-1.516c3.356-5.202-1.939-6.59-6.816-9.09
	c-1.051,0.465-0.113,2.916-1.516,3.03c-1.994-0.784-2.552-3.004-4.544-3.789C657.529,97.552,657.887,105.286,663.411,107.027z"/>
<path id="america-south_1_" class="st3" d="M191.481,335.037c-1.732,0.48-4.569,1.502-6.06,0c0.626,2.151,3.01,2.545,4.544,3.787
	C189.318,336.407,191.158,336.482,191.481,335.037z M286.929,366.095c-7.767-2.035-11.167-7.237-19.697-5.303
	c-1.768-6.188-9.305-2.505-12.119-6.819c0.804-6.627-8.296-14.613-15.149-11.361c-0.516-2.517-3.844-2.217-3.788-5.304
	c-5.29,0.24-5.035-5.065-9.849-5.301c-3.18,2.521-9.71-0.252-12.878-2.273c-2.09,1.675-5.18,1.869-6.059-0.759
	c-4.881,1.184-6.62,5.5-10.605,7.576c-0.659-0.759-5.314-3.351-3.788-1.514c4.606,2.31,3.518,7.584,4.546,12.12
	c-6.405,3.83-6.783,11.834-9.091,18.179c4.195,6.665,9.226,12.489,11.362,21.213c3.518,3.3,9.255,4.377,12.121,8.331
	c1.104,24.297-4.608,37.885-7.574,58.328c1.334,1.425,2.345-1.037,3.03,1.515c-0.574,3.217-1.77,5.806-1.516,9.847
	c-2.794-0.27-3.165,1.886-3.787,3.789c0.234,1.301,2.629-0.986,2.273,2.271c-6.736,3.608-0.759,10.787,0,14.394
	c0.188,0.893-1.739,0.864-1.515,1.514c1.845,5.315,6.656,8.875,11.361,12.122c2.713-0.064,4.377-1.179,6.819-1.518
	c-2.527-3.278-5.523-6.091-7.576-9.846c0.216-5.867,4.891-11.73,8.333-16.666c-2.646-0.132-3.812-1.743-4.546-3.787
	c4.107-3.729,8.358-9.2,5.303-15.907c2.438-0.167,3.206,1.339,6.059,0.757c0.065-2.46,0.392-4.658,1.517-6.061
	c3.938,0.402,6.071-0.998,9.09-1.514c2.61-5.306,0.348-7.536-2.272-11.363c11.752,7.373,14.333-8.989,21.208-15.15
	c-0.567-9.403,6.116-11.561,14.393-12.118c4.312-5.539,7.355-12.342,6.817-22.728c3.591-3.227,6.967-6.669,9.092-11.363v-1.514
	C286.87,369.688,288.235,366.556,286.929,366.095z"/>
<path id="africa_1_" class="st3" d="M457.368,352.458c7.492-6.841,15.718-12.152,16.664-23.483
	c-4.975,1.34-10.311,2.315-15.908,3.032c-2.544-8.222-14.355-11.258-14.391-24.24c-5.072-3.766-5.19-12.484-9.848-16.666
	c-0.891-2.998,0.959-5.358-1.515-7.574c-8.722,3.439-15.557-3.63-24.998-3.029c-1.633,0.639,0.284,4.828-1.516,5.303
	c-5.823-1.318-14.926-5.729-20.452-9.849c3.333-1.137-0.509-4.948,1.513-6.818c-13.434-3.628-24.245,6.625-36.358,3.03
	c-1.383,6.337-10.083,8.051-8.332,15.15c-6.736,4.882-11.781,11.45-15.152,19.695c4.122,6.491-1.898,13.941,0.758,21.211
	c7.734,4.181,9.14,15.256,18.938,16.664c1.022,0.146,10.415-0.392,12.877-0.757c4.511-0.674,8.519-5.067,13.634-3.03
	c1.387,1.141,1.784,3.268,3.032,4.545c2.848-1.391,7.071-0.837,8.332,1.516c-5.893,15.396,10.342,18.292,8.332,34.088
	c-3.445,2.108-3.142,7.97-4.544,12.118c5.98,11.341,11.093,27.076,14.391,38.635c1.336,0.684,2.346,1.692,3.031,3.027h0.757
	c14.468-2.048,27.382-9.342,27.271-23.479c2.18-0.853,4.468-1.593,6.061-3.03c0.57-4.613-1.663-6.419-1.516-10.606
	c4.146-3.426,9.258-5.892,12.876-9.847c0.901-9.774-5.246-15.207-3.787-22.727C448.215,361.762,454.147,355.401,457.368,352.458z
	 M458.882,390.336c1.901,6.91-7.943,22.537,6.061,20.451c1.396-11.53,10.846-21.7,3.788-29.542
	C467.264,386.092,464.628,389.768,458.882,390.336z"/>
<path id="oceania_1_" class="st3" d="M795.973,305.494h-1.515C794.646,306.446,795.965,306.259,795.973,305.494z M798.247,307.767
	c0.588-0.169,1.493-0.021,1.515-0.758C799.172,307.179,798.266,307.029,798.247,307.767z M802.792,308.523
	C799.171,306.417,800.957,311.008,802.792,308.523L802.792,308.523z M802.792,310.038v3.03c1.358,0.098,1.596-0.927,3.029-0.757
	v-0.758C804.315,311.544,804.857,309.487,802.792,310.038z M620.231,366.852h2.273c0.463-0.042,0.896-0.111,0.756-0.757
	c-0.316,0.059-0.316-5.364,0-5.303c1.803,0.976,0.637,4.919,3.03,5.303c0.701-4.154-0.024,1.952,2.273,0.757
	c0.856-2.378-0.218-2.001,0.759-3.787c-3.47,0.69-2.164-3.391-3.788-4.546c1.888-1.453,3.112,1.157,4.545-0.757
	c-0.884-0.128-0.824-1.197-0.757-2.273c-3.195,0.698-3.834,0.03-6.063,2.273c0.312-1.825-1.382-1.646-0.756-3.789
	c3.879,0.073,12.334,0.747,9.848-3.03c-1.048,3.083-6.626,0.928-9.092,0.761C619.041,355.941,620.559,361.766,620.231,366.852z
	 M620.231,352.458c-0.586,0.171-1.493,0.021-1.515,0.76C619.305,353.047,620.209,353.195,620.231,352.458z M646.744,354.731
	c-0.891,0.12-2.151-0.13-2.271,0.757C645.362,355.371,646.621,355.62,646.744,354.731z M630.836,359.277
	c1.867-0.1,3.65-0.115,4.546,0.757C635.409,357.883,630.674,357.195,630.836,359.277z M639.926,357.762
	c-0.892,0.117-2.15-0.13-2.272,0.757C638.546,358.4,639.805,358.65,639.926,357.762z M685.376,358.519
	C685.875,359.016,685.059,358.2,685.376,358.519L685.376,358.519z M644.472,358.519c-0.588,0.171-1.493,0.021-1.517,0.759
	C643.543,359.107,644.452,359.255,644.472,358.519z M680.832,358.519c-0.587,0.171-1.494,0.021-1.514,0.759
	C679.905,359.107,680.81,359.255,680.832,358.519z M686.892,360.792C687.388,361.289,686.575,360.473,686.892,360.792
	L686.892,360.792z M634.624,362.308c1.025,0.237,1.448,1.078,3.03,0.757C638.223,360.481,634.761,360.109,634.624,362.308z
	 M638.413,362.308c1.005,1.274,5.065-1.265,6.816,0.757C646.093,359.72,638.549,360.032,638.413,362.308z M652.804,369.882
	c0.876-1.137,2.659-3.19,0-3.787C653.258,367.442,650.583,369.24,652.804,369.882z M622.504,368.366
	C623,368.863,622.188,368.049,622.504,368.366L622.504,368.366z M702.799,369.882C699.738,367.217,701.011,372.319,702.799,369.882
	L702.799,369.882z M636.137,371.396c-0.586,0.169-1.492,0.022-1.514,0.76C635.212,371.984,636.119,372.133,636.137,371.396z
	 M642.199,372.155c0.589-0.171,1.495-0.022,1.516-0.76C643.125,371.564,642.219,371.418,642.199,372.155z M692.195,374.426
	C692.692,374.923,691.877,374.107,692.195,374.426L692.195,374.426z M619.474,375.94c2.853-0.796,3.449,3.283,4.545,0
	C622.592,375.314,620.083,373.146,619.474,375.94z M707.343,374.426c-0.52,2.038,1.567,1.464,2.274,2.275
	C710.139,374.661,708.052,375.235,707.343,374.426z M646.744,378.972h-3.029v1.515C645.056,380.313,647.507,381.249,646.744,378.972
	z M693.711,379.729C693.392,379.412,694.207,380.225,693.711,379.729L693.711,379.729z M708.104,380.486
	C707.785,380.17,708.599,380.983,708.104,380.486L708.104,380.486z M767.188,383.519c-0.521,2.035,1.566,1.463,2.274,2.271
	C769.981,383.752,767.894,384.324,767.188,383.519z M657.349,385.032C658.227,388.025,658.227,382.039,657.349,385.032
	L657.349,385.032z M724.012,385.032C723.692,384.714,724.507,385.529,724.012,385.032L724.012,385.032z M750.523,389.576
	c-0.085,1.433-2.504,0.525-2.273,2.273c1.102-0.414,3.916,0.885,3.787-0.757C751.037,391.082,751.346,389.763,750.523,389.576z
	 M663.409,391.093C663.906,391.588,663.09,390.773,663.409,391.093L663.409,391.093z M725.526,391.85
	C725.208,391.531,726.022,392.347,725.526,391.85L725.526,391.85z M748.25,394.88v-2.273c-1.318-0.057-2.355,0.171-3.029,0.757
	C744.458,395.643,746.908,394.707,748.25,394.88z M725.526,394.123c0.587-0.171,1.493-0.021,1.514-0.76
	C726.452,393.534,725.546,393.386,725.526,394.123z M728.556,395.637c-0.589,0.17-1.495,0.021-1.517,0.757
	C727.626,396.226,728.534,396.375,728.556,395.637z M723.252,400.941C724.13,403.934,724.13,397.946,723.252,400.941
	L723.252,400.941z M724.767,402.456C725.263,402.953,724.451,402.137,724.767,402.456L724.767,402.456z M606.596,411.546v1.515
	C607.757,413.048,609.087,410.992,606.596,411.546z M673.256,448.662C674.134,451.655,674.134,445.669,673.256,448.662
	L673.256,448.662z M739.16,451.692c-1.98-0.481-2.322-0.171-4.543-1.515c-1.281,8.567-10.478,9.219-12.88,16.665
	c1.746,0.372,4.18,1.54,2.526,3.506c2.34-2.354,8.168-1.045,8.078-8.81c1.178-1.094,3.535-1.009,4.545-2.271
	C734.85,456.933,740.383,455.725,739.16,451.692z M674.772,450.936c1.02,3.271,1.058,7.527,4.546,8.333
	c3.427-0.536,3.701-3.055,3.785-8.333C680.53,452.242,677.553,451.461,674.772,450.936z M758.098,460.025
	c0.009,0.765,1.327,0.952,1.516,0C758.763,460.101,758.433,458.926,758.098,460.025z M720.98,481.993
	C721.858,484.984,721.858,478.999,720.98,481.993L720.98,481.993z M678.558,395.637c0.538-3.821-2.328-4.235-1.514-8.331
	c-5.109-0.447-3.238-7.873-7.575-9.093c-2.199,5.769,0.447,11.702-3.787,15.15c-3.295-2.259-7.436-3.673-9.848-6.814
	c0.426-2.353,2.263-3.294,3.03-5.304c-3.812,0.034-7.864-2.387-11.364-1.516c0.925,0.087,1.796,0.227,1.517,1.516h-4.545
	c-0.399,2.63-2.052,4.007-3.03,6.061c-1.577-0.948-3.195-1.857-4.545-3.03c-2.805,0.201-4.788,4.676-6.061,6.061
	c-0.135,0.146-3.029-0.754-0.757,1.514c-1.081-0.181-1.278-1.248-2.272-1.514c-1.409,1.367-1.73,3.823-2.272,6.058
	c-4.953,3.381-12.879,3.789-17.423,7.578c-0.633,4.528-0.525,6.081,1.514,9.089c-1.079-0.297-1.277-0.91-2.271,0
	c1.876,5.493,7.499,13.449,3.787,19.694c4.738,7.409,10.101-2.409,18.938,0c4.184-7.246,24.315-9.261,24.996,2.271
	c2.396-0.887,3.269-3.294,5.304-4.542c0.504,2.575-3.045,4.967-1.515,6.059c1.189-0.577,1.132-2.401,3.029-2.273
	c0.17,1.433-0.854,1.673-0.759,3.03c-1.133-1.199-3.098-0.557-3.786,0.759c2.854,0.583,3.62-0.926,6.06-0.759
	c0.259,5.75,6.365,10.095,12.12,6.819c0.688,1.331,2.655,1.384,3.789,2.272c0.806-2.981,4.541-3.034,7.574-3.787
	c0.624-12.128,11.699-18.832,6.059-32.573C688.38,408.033,685.059,398.232,678.558,395.637z M636.897,356.245
	c1.042-0.03,1.663,0.357,2.272,0.76c1.522-3.928,0.705-5.799,0.757-8.334c-0.424,1.092-1.183,1.85-2.272,2.271
	C637.329,353.954,639.396,355.032,636.897,356.245z M638.413,356.245C638.908,356.743,638.094,355.929,638.413,356.245
	L638.413,356.245z M649.774,363.821c4.745-1.365,16.481,3.647,9.848,9.091c6.788-2.021,5.333,2.918,12.12,2.272
	c1.136-1.14,1.355-3.19,3.03-3.789c5.104,1.716,6.957,6.68,13.634,6.817c-0.032-1.041,0.358-1.662,0.759-2.272
	c-0.527-0.081-1.038-0.209-1.534-0.365c0.48,0.382,0.979,0.923,0.775,1.126c-0.73,0.728-1.78-0.858-1.576-1.414
	c-3.743-1.523-6.23-5.078-5.24-8.436c-2.411,2.046,0.505-2.033-3.031,0c-1.032-0.384,0.071-2.2,0-2.272
	c-1.509-1.604-18.57-8.033-20.453-5.302c-0.392-0.958-1.845-4.601-3.029-2.272c1.024,0.742,1.516,2.021,2.273,3.029
	c-1.082,0.181-1.277,1.249-2.273,1.515c-1.951-0.574-2.631-2.417-2.271-5.304c-2.989-0.727-6.13-1.039-8.332,0.76
	C647.913,357.602,648.355,361.199,649.774,363.821z M686.892,375.185c-0.027,0.028-0.048,0.063-0.063,0.103
	c0.262,0.106,0.528,0.203,0.801,0.288C687.292,375.307,686.962,375.114,686.892,375.185z M693.711,363.821
	c-1.748-0.572-3.849-4.68-5.306-3.029c1.139,1.136,3.192,1.354,3.789,3.029c-3.25,0.719-5.35,4.28-9.092,2.273
	C685.249,371.231,692.333,366.46,693.711,363.821z M695.982,366.095c1.418,1.106,0.896,4.156,3.787,3.787
	C699.667,367.913,696.696,364.942,695.982,366.095z M649.774,366.852C647.707,369.155,652.079,364.786,649.774,366.852
	L649.774,366.852z M646.744,369.882c0.11,1.007-2.547,2.819-0.758,3.03C645.875,371.903,649.066,370.627,646.744,369.882z
	 M705.073,372.155C710.571,375.026,705.234,368.764,705.073,372.155L705.073,372.155z M701.286,372.155
	c0.589,0.166,0.879,0.633,0.756,1.516h1.517c0.461-0.045,0.895-0.115,0.757-0.759C703.69,372.368,699.416,370.537,701.286,372.155z
	 M633.108,373.671c-1.864,0.448-5.246,3.28-3.785,4.542c2.342-2.2,5.881-3.204,8.331-5.301c-4.226-0.973-8.707-0.188-11.363,0
	c-4.777,0.343-10.409-2.277-12.876,0.759C620.242,375.374,628.367,372.488,633.108,373.671z M709.618,372.912
	C710.513,377.56,713.263,374.81,709.618,372.912L709.618,372.912z M711.889,377.456
	C709.423,376.029,715.618,379.615,711.889,377.456L711.889,377.456z M724.767,391.093c0.052-1.878-1.874-5.62-3.03-3.787
	C723.41,387.906,722.722,390.865,724.767,391.093z M725.526,388.819C724.083,385.938,727.526,392.823,725.526,388.819
	L725.526,388.819z M716.435,399.424c1.634,2.407,4.084,3.994,6.817,5.303C722.562,401.859,718.014,398.886,716.435,399.424z
	 M735.373,434.269c2.526,3.813,6.836,9.08,2.271,13.637c3.495-0.311,3.387,2.973,2.273,5.303c3.833,0.143,6.649-6.874,8.333-11.363
	C741.083,446.289,740.764,434.043,735.373,434.269z M682.555,449.076c0.114,0.229,0.199,0.399,0.267,0.533
	C682.746,449.458,682.652,449.271,682.555,449.076z M682.978,449.922c-0.018-0.035-0.059-0.117-0.128-0.256
	C682.91,449.785,682.958,449.882,682.978,449.922z M682.019,448.006l0.328,0.656c0.08,0.16,0.145,0.288,0.208,0.414
	C682.338,448.645,682.106,448.179,682.019,448.006z"/>
</svg>
